#!OML:ASF F:\VICON\USERDATA\INSTALL\rory3\rory3.ASF
:FULLY-SPECIFIED
:DEGREES
1012
root -7.79807 17.9123 9.52471 -3.32118 -36.1247 2.86027
lowerback 13.533 -0.429353 -4.51996
upperback 0.905486 -1.23063 0.657304
thorax -6.53013 -0.469235 3.4879
lowerneck -21.6385 -5.80391 -10.5207
upperneck 23.1963 -6.8733 8.00425
head 11.8579 -3.04529 3.58726
rclavicle 8.11041e-014 7.7526e-015
rhumerus -33.324 -23.9642 -70.7754
rradius 21.9085
rwrist 12.0037
rhand -19.3114 7.43037
rfingers 7.12502
rthumb 7.0046 -22.4337
lclavicle 8.11041e-014 7.7526e-015
lhumerus -23.6756 -8.16651 89.239
lradius 32.5735
lwrist -5.28666
lhand -21.2252 26.9145
lfingers 7.12502
lthumb 5.15687 56.8317
rfemur -20.2022 -9.97645 19.2025
rtibia 28.4784
rfoot -3.67183 -20.1263
rtoes 30.4425
lfemur 7.23574 0.157888 -22.2812
ltibia 13.0534
lfoot -9.3868 3.45018
ltoes -14.9385
1013
root -7.7467 17.9102 9.48347 -3.212 -35.7576 2.88926
lowerback 13.445 -0.514489 -4.67023
upperback 0.842973 -1.36579 0.609576
thorax -6.53311 -0.52998 3.54598
lowerneck -21.3628 -5.82034 -10.6727
upperneck 22.7541 -6.92563 8.29979
head 11.6598 -3.04963 3.71039
rclavicle -2.50717e-014 1.98785e-015
rhumerus -33.6941 -23.5036 -71.1013
rradius 22.3966
rwrist 11.542
rhand -19.4133 7.68736
rfingers 7.12502
rthumb 6.90615 -22.18
lclavicle -2.50717e-014 1.98785e-015
lhumerus -23.8236 -8.04151 88.9988
lradius 32.5839
lwrist -5.60794
lhand -21.1543 26.9449
lfingers 7.12502
lthumb 5.22538 56.8604
rfemur -20.5171 -10.2112 19.1079
rtibia 28.5204
rfoot -3.65422 -20.0995
rtoes 30.8991
lfemur 7.20295 0.36226 -22.2947
ltibia 12.3633
lfoot -9.35618 2.98355
ltoes -13.8408
1014
root -7.69384 17.9069 9.44532 -3.07355 -35.5465 2.89659
lowerback 13.3957 -0.547575 -4.7867
upperback 0.732081 -1.42914 0.568623
thorax -6.61649 -0.553046 3.58058
lowerneck -21.2317 -5.84099 -10.7801
upperneck 22.5317 -6.96132 8.46139
head 11.5653 -3.05724 3.78039
rclavicle 9.29815e-014 -1.80894e-014
rhumerus -34.1968 -22.9048 -71.4493
rradius 23.0289
rwrist 10.9033
rhand -19.1826 8.02579
rfingers 7.12502
rthumb 7.12892 -21.8341
lclavicle 9.29815e-014 -1.80894e-014
lhumerus -24.0458 -7.85886 88.7803
lradius 32.6034
lwrist -5.83507
lhand -21.2812 26.5788
lfingers 7.12502
lthumb 5.10282 56.4973
rfemur -20.8695 -10.3255 19.0485
rtibia 28.581
rfoot -3.55696 -19.9889
rtoes 31.0637
lfemur 7.11821 0.640124 -22.3207
ltibia 11.7757
lfoot -9.40849 2.58738
ltoes -14.2341
1015
root -7.6408 17.9004 9.40343 -2.93651 -35.2928 2.86623
lowerback 13.4214 -0.585664 -4.92068
upperback 0.740054 -1.50056 0.576617
thorax -6.61204 -0.584047 3.67874
lowerneck -21.5402 -5.93939 -10.7967
upperneck 22.3855 -7.04902 8.47049
head 11.5803 -3.08725 3.76483
rclavicle 1.33583e-013 -7.95139e-016
rhumerus -34.4072 -22.4672 -71.7861
rradius 23.6004
rwrist 10.4445
rhand -19.0144 8.43024
rfingers 7.12502
rthumb 7.29123 -21.4241
lclavicle 1.33583e-013 -7.95139e-016
lhumerus -23.9002 -7.86514 88.5951
lradius 32.4958
lwrist -5.63869
lhand -21.3961 26.2681
lfingers 7.12502
lthumb 4.9919 56.1893
rfemur -21.2078 -10.4576 19.0308
rtibia 28.6536
rfoot -3.62488 -19.859
rtoes 31.2787
lfemur 6.98193 0.91589 -22.2993
ltibia 11.2869
lfoot -9.47755 2.15339
ltoes -15.5649
1016
root -7.58735 17.8947 9.35857 -2.76716 -34.9817 2.83289
lowerback 13.3703 -0.682295 -5.06289
upperback 0.795995 -1.6454 0.588652
thorax -6.50517 -0.654967 3.79605
lowerneck -21.8716 -6.00757 -10.8154
upperneck 22.1802 -7.10276 8.54127
head 11.5759 -3.09366 3.77753
rclavicle 4.96713e-014 7.15625e-015
rhumerus -34.4371 -22.0387 -72.1671
rradius 24.0674
rwrist 9.97787
rhand -18.5432 8.94224
rfingers 7.12502
rthumb 7.74604 -20.8959
lclavicle 4.96713e-014 7.15625e-015
lhumerus -23.6624 -7.68019 88.3182
lradius 32.399
lwrist -5.48382
lhand -21.4217 26.5023
lfingers 7.12502
lthumb 4.96714 56.4241
rfemur -21.5671 -10.6569 19.0194
rtibia 28.7219
rfoot -3.90809 -19.7651
rtoes 31.9251
lfemur 6.73074 1.15262 -22.2589
ltibia 10.9184
lfoot -9.58824 1.64408
ltoes -15.9545
1017
root -7.53315 17.8916 9.31191 -2.61791 -34.6809 2.80506
lowerback 13.2908 -0.747437 -5.14233
upperback 0.910655 -1.74133 0.524005
thorax -6.32835 -0.708803 3.78478
lowerneck -22.23 -6.06899 -10.8065
upperneck 21.9498 -7.18978 8.74814
head 11.5756 -3.09515 3.83071
rclavicle -9.28076e-015 9.64106e-015
rhumerus -34.3715 -21.9635 -72.5659
rradius 24.3714
rwrist 9.78328
rhand -18.0804 9.39782
rfingers 7.12502
rthumb 8.19274 -20.4233
lclavicle -9.28076e-015 9.64106e-015
lhumerus -23.3711 -7.60686 87.9063
lradius 32.4368
lwrist -5.38334
lhand -21.1484 27.0349
lfingers 7.12502
lthumb 5.23106 56.9503
rfemur -21.8723 -10.923 19.0016
rtibia 28.7579
rfoot -4.38916 -19.5861
rtoes 32.5341
lfemur 6.39227 1.35106 -22.2248
ltibia 10.7563
lfoot -9.79352 1.09515
ltoes -14.941
1018
root -7.47732 17.8878 9.26334 -2.46032 -34.4132 2.68919
lowerback 13.3596 -0.763449 -5.10967
upperback 0.968005 -1.76424 0.46772
thorax -6.30595 -0.723708 3.71155
lowerneck -22.4665 -6.18301 -10.8742
upperneck 21.7272 -7.34552 8.97768
head 11.5677 -3.13477 3.89427
rclavicle -1.75552e-014 -2.38542e-015
rhumerus -34.375 -22.0309 -72.8754
rradius 24.5606
rwrist 9.74421
rhand -18.0278 9.58805
rfingers 7.12502
rthumb 8.24348 -20.2311
lclavicle -1.75552e-014 -2.38542e-015
lhumerus -23.2089 -7.73656 87.5638
lradius 32.5199
lwrist -5.24706
lhand -20.7978 27.0614
lfingers 7.12502
lthumb 5.56956 56.9682
rfemur -22.1118 -11.2844 19.0891
rtibia 28.7615
rfoot -5.13364 -19.3164
rtoes 32.3405
lfemur 6.02727 1.47671 -22.136
ltibia 10.7607
lfoot -9.93862 0.761388
ltoes -14.407
1019
root -7.42347 17.8877 9.21405 -2.31247 -34.1479 2.53429
lowerback 13.5381 -0.78879 -5.05335
upperback 0.902892 -1.80004 0.476477
thorax -6.47294 -0.735778 3.70247
lowerneck -22.44 -6.28202 -11.0346
upperneck 21.5364 -7.45006 9.10084
head 11.5156 -3.17999 3.94523
rclavicle 3.43525e-014 -3.08116e-015
rhumerus -34.5714 -21.8947 -73.0475
rradius 24.7531
rwrist 9.63979
rhand -17.9559 9.79761
rfingers 7.12502
rthumb 8.31289 -20.0188
lclavicle 3.43525e-014 -3.08116e-015
lhumerus -23.3026 -7.71432 87.4054
lradius 32.4616
lwrist -5.14105
lhand -21.0085 26.7173
lfingers 7.12502
lthumb 5.3661 56.6294
rfemur -22.299 -11.6287 19.223
rtibia 28.733
rfoot -5.97481 -19.0245
rtoes 31.1368
lfemur 5.60517 1.71582 -21.9757
ltibia 10.907
lfoot -10.0051 0.313859
ltoes -13.9048
1020
root -7.37137 17.892 9.16686 -2.24966 -33.9047 2.55197
lowerback 13.6011 -0.8066 -5.14664
upperback 0.913435 -1.84345 0.444081
thorax -6.49085 -0.754395 3.73058
lowerneck -22.5613 -6.33451 -10.9657
upperneck 21.3294 -7.49459 9.02388
head 11.4589 -3.19918 3.89102
rclavicle 1.53561e-014 2.10712e-014
rhumerus -34.6087 -21.7725 -73.2677
rradius 24.9164
rwrist 9.59725
rhand -17.8287 9.79087
rfingers 7.12502
rthumb 8.43561 -20.0207
lclavicle 1.53561e-014 2.10712e-014
lhumerus -23.261 -7.66009 87.2419
lradius 32.3438
lwrist -4.93919
lhand -21.4729 26.6675
lfingers 7.12502
lthumb 4.91773 56.5904
rfemur -22.5048 -11.9948 19.2021
rtibia 28.7028
rfoot -6.79435 -18.6207
rtoes 30.1463
lfemur 5.11935 2.00848 -21.9757
ltibia 11.1315
lfoot -10.0344 -0.25441
ltoes -13.1537
1021
root -7.32153 17.8962 9.11908 -2.16042 -33.7233 2.60521
lowerback 13.5725 -0.787876 -5.2688
upperback 0.921585 -1.83981 0.379974
thorax -6.46501 -0.75102 3.72971
lowerneck -22.5615 -6.40536 -10.8519
upperneck 21.0378 -7.58705 8.94149
head 11.3511 -3.24039 3.81882
rclavicle -9.17267e-014 5.46658e-015
rhumerus -34.6785 -21.7964 -73.4271
rradius 25.0332
rwrist 9.72156
rhand -17.82 10.0817
rfingers 7.12502
rthumb 8.44409 -19.7295
lclavicle -9.17267e-014 5.46658e-015
lhumerus -23.2021 -7.16444 86.9587
lradius 32.2723
lwrist -5.23174
lhand -21.567 26.6412
lfingers 7.12502
lthumb 4.82691 56.5662
rfemur -22.7964 -12.342 19.1762
rtibia 28.6923
rfoot -7.4541 -18.0837
rtoes 29.0126
lfemur 4.60785 2.15143 -22.0339
ltibia 11.344
lfoot -10.0206 -0.709468
ltoes -12.3746
1022
root -7.27188 17.9012 9.0734 -2.10381 -33.5863 2.69895
lowerback 13.6172 -0.748617 -5.37395
upperback 0.867822 -1.81425 0.287497
thorax -6.55011 -0.732745 3.68858
lowerneck -22.4086 -6.49046 -10.9112
upperneck 20.7247 -7.71897 9.09196
head 11.2304 -3.29016 3.85781
rclavicle -7.95077e-014 1.14053e-014
rhumerus -34.8139 -22.2169 -73.4244
rradius 24.9437
rwrist 10.3003
rhand -17.8463 10.7479
rfingers 7.12502
rthumb 8.41863 -19.0643
lclavicle -7.95077e-014 1.14053e-014
lhumerus -23.2591 -6.3302 86.621
lradius 32.2314
lwrist -5.84928
lhand -21.5854 26.5245
lfingers 7.12502
lthumb 4.80912 56.45
rfemur -23.066 -12.6694 19.0938
rtibia 28.7422
rfoot -8.23405 -17.4661
rtoes 27.7874
lfemur 4.18702 2.18566 -22.1428
ltibia 11.4592
lfoot -9.91205 -1.10601
ltoes -10.9635
1023
root -7.22355 17.9078 9.0281 -2.08088 -33.4414 2.87146
lowerback 13.6501 -0.732087 -5.55864
upperback 0.834423 -1.8288 0.214001
thorax -6.59977 -0.733049 3.71917
lowerneck -22.3088 -6.53508 -11.188
upperneck 20.4131 -7.77184 9.46664
head 11.1327 -3.29356 4.03025
rclavicle 1.66113e-013 -1.57785e-014
rhumerus -34.7802 -22.3328 -73.5801
rradius 24.8539
rwrist 10.5707
rhand -17.9959 10.7304
rfingers 7.12502
rthumb 8.27426 -19.0876
lclavicle 1.66113e-013 -1.57785e-014
lhumerus -23.2833 -5.76801 86.3183
lradius 32.1446
lwrist -6.03763
lhand -21.6515 26.4665
lfingers 7.12502
lthumb 4.74528 56.3934
rfemur -23.3726 -12.9606 18.9371
rtibia 28.8615
rfoot -9.0307 -16.8361
rtoes 26.6341
lfemur 3.79664 2.31583 -22.3042
ltibia 11.4865
lfoot -9.77771 -1.56931
ltoes -10.0844
1024
root -7.17835 17.9142 8.98177 -2.11189 -33.2892 3.06242
lowerback 13.6721 -0.707174 -5.78695
upperback 0.850308 -1.83843 0.124889
thorax -6.59035 -0.733077 3.75554
lowerneck -22.278 -6.59413 -11.4138
upperneck 20.1621 -7.84422 9.78578
head 11.0685 -3.30668 4.17002
rclavicle 6.90847e-014 1.35671e-014
rhumerus -34.6665 -22.1614 -73.9198
rradius 24.8132
rwrist 10.5097
rhand -18.4062 10.2141
rfingers 7.12502
rthumb 7.87828 -19.6191
lclavicle 6.90847e-014 1.35671e-014
lhumerus -23.2642 -5.38314 86.015
lradius 32.005
lwrist -6.04087
lhand -21.841 26.3635
lfingers 7.12502
lthumb 4.56226 56.2944
rfemur -23.6955 -13.3457 18.7958
rtibia 29.0713
rfoot -9.50799 -16.158
rtoes 23.9639
lfemur 3.49244 2.58652 -22.4687
ltibia 11.4292
lfoot -9.62009 -2.07619
ltoes -11.4052
1025
root -7.13601 17.9209 8.93559 -2.10647 -33.1452 3.16839
lowerback 13.6778 -0.65684 -5.93667
upperback 0.844331 -1.80211 0.0319045
thorax -6.60257 -0.711783 3.7347
lowerneck -22.1129 -6.65849 -11.4121
upperneck 19.8834 -7.94476 9.83958
head 10.9499 -3.35044 4.16849
rclavicle 3.04358e-014 -2.18663e-015
rhumerus -34.6631 -22.0695 -74.1802
rradius 24.7247
rwrist 10.5363
rhand -18.7206 10.0237
rfingers 7.12502
rthumb 7.57483 -19.8206
lclavicle 3.04358e-014 -2.18663e-015
lhumerus -23.2871 -4.95271 85.7138
lradius 31.8254
lwrist -6.14892
lhand -22.0711 26.4913
lfingers 7.12502
lthumb 4.34007 56.4268
rfemur -23.9955 -13.6773 18.7333
rtibia 29.3727
rfoot -9.78414 -15.6324
rtoes 20.9979
lfemur 3.2512 3.01541 -22.5396
ltibia 11.2876
lfoot -9.48028 -2.67466
ltoes -13.4894
1026
root -7.0948 17.9307 8.88785 -2.02939 -32.9712 3.33139
lowerback 13.5857 -0.646257 -6.14441
upperback 0.857495 -1.81886 -0.0490296
thorax -6.53185 -0.717914 3.76588
lowerneck -22.1358 -6.70616 -11.3164
upperneck 19.6388 -8.00318 9.77703
head 10.8637 -3.37592 4.11403
rclavicle 7.92405e-014 -2.26615e-014
rhumerus -34.4724 -22.4223 -74.2543
rradius 24.3721
rwrist 11.1631
rhand -18.8223 10.2793
rfingers 7.12502
rthumb 7.47666 -19.5685
lclavicle 7.92405e-014 -2.26615e-014
lhumerus -23.2177 -4.31613 85.391
lradius 31.578
lwrist -6.33395
lhand -22.159 26.6711
lfingers 7.12502
lthumb 4.25521 56.6084
rfemur -24.3757 -13.952 18.6197
rtibia 29.7499
rfoot -10.1237 -15.1292
rtoes 19.4623
lfemur 2.9058 3.24876 -22.6785
ltibia 11.1158
lfoot -9.26121 -3.21343
ltoes -13.7475
